HIERARCHY
ROOT Hips
{
	OFFSET -0.087744 88.518600 4.106688
	CHANNELS 6 Xposition Yposition Zposition Zrotation Yrotation Xrotation 
	JOINT Spine
	{
		OFFSET 0.000000 8.814246 -2.080107
		CHANNELS 3 Zrotation Yrotation Xrotation
		JOINT Spine1
		{
			OFFSET -0.000000 8.844141 -0.000000
			CHANNELS 3 Zrotation Yrotation Xrotation
			JOINT Spine2
			{
				OFFSET 0.000000 11.682268 0.000000
				CHANNELS 3 Zrotation Yrotation Xrotation
				JOINT Spine3
				{
					OFFSET 0.000000 11.746700 0.000000
					CHANNELS 3 Zrotation Yrotation Xrotation
					JOINT Neck
					{
						OFFSET 0.000000 17.658264 -0.000000
						CHANNELS 3 Zrotation Yrotation Xrotation
						JOINT Neck1
						{
							OFFSET -0.000000 5.101515 -0.000000
							CHANNELS 3 Zrotation Yrotation Xrotation
							JOINT Head
							{
								OFFSET -0.000000 5.101515 -0.000000
								CHANNELS 3 Zrotation Yrotation Xrotation
								JOINT HeadEnd
								{
									OFFSET 0.000000 11.655085 0.000000
									CHANNELS 3 Zrotation Yrotation Xrotation
									End Site
									{
										OFFSET 0.000000 0.000000 0.000000
									}
								}
							}
						}
					}
					JOINT RightShoulder
					{
						OFFSET -2.625389 11.175210 0.000000
						CHANNELS 3 Zrotation Yrotation Xrotation
						JOINT RightArm
						{
							OFFSET 0.000000 10.434715 -0.000000
							CHANNELS 3 Zrotation Yrotation Xrotation
							JOINT RightForeArm
							{
								OFFSET -0.000000 29.628420 0.000000
								CHANNELS 3 Zrotation Yrotation Xrotation
								JOINT RightHand
								{
									OFFSET -0.000000 22.857611 0.000000
									CHANNELS 3 Zrotation Yrotation Xrotation
									JOINT RightHandThumb1
									{
										OFFSET -2.867323 3.959563 2.944291
										CHANNELS 3 Zrotation Yrotation Xrotation
										JOINT RightHandThumb2
										{
											OFFSET -0.000000 3.350399 0.000000
											CHANNELS 3 Zrotation Yrotation Xrotation
											JOINT RightHandThumb3
											{
												OFFSET 0.000000 3.756509 -0.000000
												CHANNELS 3 Zrotation Yrotation Xrotation
												JOINT RightHandThumb4
												{
													OFFSET -0.000000 3.147345 0.000000
													CHANNELS 3 Zrotation Yrotation Xrotation
													End Site
													{
														OFFSET 0.000000 0.000000 0.000000
													}
												}
											}
										}
									}
									JOINT RightHandIndex1
									{
										OFFSET -0.086752 10.030893 2.345280
										CHANNELS 3 Zrotation Yrotation Xrotation
										JOINT RightHandIndex2
										{
											OFFSET 0.000000 4.061090 -0.000000
											CHANNELS 3 Zrotation Yrotation Xrotation
											JOINT RightHandIndex3
											{
												OFFSET 0.000000 3.248873 -0.000000
												CHANNELS 3 Zrotation Yrotation Xrotation
												JOINT RightHandIndex4
												{
													OFFSET 0.000000 2.639709 -0.000000
													CHANNELS 3 Zrotation Yrotation Xrotation
													End Site
													{
														OFFSET 0.000000 0.000000 0.000000
													}
												}
											}
										}
									}
									JOINT RightHandMiddle1
									{
										OFFSET 0.104102 9.502952 0.006768
										CHANNELS 3 Zrotation Yrotation Xrotation
										JOINT RightHandMiddle2
										{
											OFFSET 0.000000 4.568727 -0.000000
											CHANNELS 3 Zrotation Yrotation Xrotation
											JOINT RightHandMiddle3
											{
												OFFSET -0.000000 3.654981 0.000000
												CHANNELS 3 Zrotation Yrotation Xrotation
												JOINT RightHandMiddle4
												{
													OFFSET 0.000000 2.741236 0.000000
													CHANNELS 3 Zrotation Yrotation Xrotation
													End Site
													{
														OFFSET 0.000000 0.000000 0.000000
													}
												}
											}
										}
									}
									JOINT RightHandRing1
									{
										OFFSET 0.086752 8.921708 -2.267442
										CHANNELS 3 Zrotation Yrotation Xrotation
										JOINT RightHandRing2
										{
											OFFSET 0.000000 4.061090 -0.000000
											CHANNELS 3 Zrotation Yrotation Xrotation
											JOINT RightHandRing3
											{
												OFFSET -0.000000 3.654981 0.000000
												CHANNELS 3 Zrotation Yrotation Xrotation
												JOINT RightHandRing4
												{
													OFFSET 0.000000 2.741236 -0.000000
													CHANNELS 3 Zrotation Yrotation Xrotation
													End Site
													{
														OFFSET 0.000000 0.000000 0.000000
													}
												}
											}
										}
									}
									JOINT RightHandPinky1
									{
										OFFSET -0.173504 7.976997 -4.467199
										CHANNELS 3 Zrotation Yrotation Xrotation
										JOINT RightHandPinky2
										{
											OFFSET 0.000000 3.350399 0.000000
											CHANNELS 3 Zrotation Yrotation Xrotation
											JOINT RightHandPinky3
											{
												OFFSET 0.000000 2.842763 -0.000000
												CHANNELS 3 Zrotation Yrotation Xrotation
												JOINT RightHandPinky4
												{
													OFFSET -0.000000 2.639709 -0.000000
													CHANNELS 3 Zrotation Yrotation Xrotation
													End Site
													{
														OFFSET 0.000000 0.000000 0.000000
													}
												}
											}
										}
									}
									JOINT RightForeArmEnd
									{
										OFFSET 0.000000 0.000000 0.000000
										CHANNELS 3 Zrotation Yrotation Xrotation
										End Site
										{
											OFFSET 0.000000 0.000000 0.000000
										}
									}
								}
								JOINT RightArmEnd
								{
									OFFSET 0.000000 0.000000 0.000000
									CHANNELS 3 Zrotation Yrotation Xrotation
									End Site
									{
										OFFSET 0.000000 0.000000 0.000000
									}
								}
							}
						}
					}
					JOINT LeftShoulder
					{
						OFFSET 2.625389 11.175210 -0.000000
						CHANNELS 3 Zrotation Yrotation Xrotation
						JOINT LeftArm
						{
							OFFSET -0.000000 10.813635 0.000000
							CHANNELS 3 Zrotation Yrotation Xrotation
							JOINT LeftForeArm
							{
								OFFSET -0.000000 28.724781 0.000000
								CHANNELS 3 Zrotation Yrotation Xrotation
								JOINT LeftHand
								{
									OFFSET 0.644384 25.716167 -0.328871
									CHANNELS 3 Zrotation Yrotation Xrotation
									JOINT LeftHandThumb1
									{
										OFFSET 2.867323 3.959563 2.944291
										CHANNELS 3 Zrotation Yrotation Xrotation
										JOINT LeftHandThumb2
										{
											OFFSET -0.000000 3.350399 0.000000
											CHANNELS 3 Zrotation Yrotation Xrotation
											JOINT LeftHandThumb3
											{
												OFFSET -0.000000 3.756509 -0.000000
												CHANNELS 3 Zrotation Yrotation Xrotation
												JOINT LeftHandThumb4
												{
													OFFSET 0.000000 3.100000 -0.000000
													CHANNELS 3 Zrotation Yrotation Xrotation
													End Site
													{
														OFFSET 0.000000 0.000000 0.000000
													}
												}
											}
										}
									}
									JOINT LeftHandIndex1
									{
										OFFSET 0.086752 10.030893 2.345280
										CHANNELS 3 Zrotation Yrotation Xrotation
										JOINT LeftHandIndex2
										{
											OFFSET -0.000000 4.061090 0.000000
											CHANNELS 3 Zrotation Yrotation Xrotation
											JOINT LeftHandIndex3
											{
												OFFSET 0.000000 3.248873 0.000000
												CHANNELS 3 Zrotation Yrotation Xrotation
												JOINT LeftHandIndex4
												{
													OFFSET 0.000000 2.639709 -0.000000
													CHANNELS 3 Zrotation Yrotation Xrotation
													End Site
													{
														OFFSET 0.000000 0.000000 0.000000
													}
												}
											}
										}
									}
									JOINT LeftHandMiddle1
									{
										OFFSET -0.104102 9.502952 0.006768
										CHANNELS 3 Zrotation Yrotation Xrotation
										JOINT LeftHandMiddle2
										{
											OFFSET 0.000000 4.568727 -0.000000
											CHANNELS 3 Zrotation Yrotation Xrotation
											JOINT LeftHandMiddle3
											{
												OFFSET 0.000000 3.654981 0.000000
												CHANNELS 3 Zrotation Yrotation Xrotation
												JOINT LeftHandMiddle4
												{
													OFFSET -0.000000 2.741236 -0.000000
													CHANNELS 3 Zrotation Yrotation Xrotation
													End Site
													{
														OFFSET 0.000000 0.000000 0.000000
													}
												}
											}
										}
									}
									JOINT LeftHandRing1
									{
										OFFSET -0.086752 8.921708 -2.267442
										CHANNELS 3 Zrotation Yrotation Xrotation
										JOINT LeftHandRing2
										{
											OFFSET -0.000000 4.061090 -0.000000
											CHANNELS 3 Zrotation Yrotation Xrotation
											JOINT LeftHandRing3
											{
												OFFSET 0.000000 3.654981 0.000000
												CHANNELS 3 Zrotation Yrotation Xrotation
												JOINT LeftHandRing4
												{
													OFFSET -0.000000 2.741236 -0.000000
													CHANNELS 3 Zrotation Yrotation Xrotation
													End Site
													{
														OFFSET 0.000000 0.000000 0.000000
													}
												}
											}
										}
									}
									JOINT LeftHandPinky1
									{
										OFFSET 0.173504 7.976997 -4.467199
										CHANNELS 3 Zrotation Yrotation Xrotation
										JOINT LeftHandPinky2
										{
											OFFSET 0.000000 3.350399 0.000000
											CHANNELS 3 Zrotation Yrotation Xrotation
											JOINT LeftHandPinky3
											{
												OFFSET -0.000000 2.842763 -0.000000
												CHANNELS 3 Zrotation Yrotation Xrotation
												JOINT LeftHandPinky4
												{
													OFFSET -0.000000 2.639709 -0.000000
													CHANNELS 3 Zrotation Yrotation Xrotation
													End Site
													{
														OFFSET 0.000000 0.000000 0.000000
													}
												}
											}
										}
									}
									JOINT LeftForeArmEnd
									{
										OFFSET 0.000000 0.000000 0.000000
										CHANNELS 3 Zrotation Yrotation Xrotation
										End Site
										{
											OFFSET 0.000000 0.000000 0.000000
										}
									}
								}
								JOINT LeftArmEnd
								{
									OFFSET 0.000000 0.000000 0.000000
									CHANNELS 3 Zrotation Yrotation Xrotation
									End Site
									{
										OFFSET 0.000000 0.000000 0.000000
									}
								}
							}
						}
					}
				}
			}
		}
	}
	JOINT RightUpLeg
	{
		OFFSET -11.289943 0.000000 0.000000
		CHANNELS 3 Zrotation Yrotation Xrotation
		JOINT RightLeg
		{
			OFFSET -0.000000 -38.200325 -0.000000
			CHANNELS 3 Zrotation Yrotation Xrotation
			JOINT RightFoot
			{
				OFFSET -0.000000 -39.900856 -0.000000
				CHANNELS 3 Zrotation Yrotation Xrotation
				JOINT RightToeBase
				{
					OFFSET 0.000000 0.000000 15.261641
					CHANNELS 3 Zrotation Yrotation Xrotation
					JOINT RightToeBaseEnd
					{
						OFFSET 0.000000 0.000000 7.370709
						CHANNELS 3 Zrotation Yrotation Xrotation
						End Site
						{
							OFFSET 0.000000 0.000000 0.000000
						}
					}
				}
				JOINT RightLegEnd
				{
					OFFSET 0.000000 0.000000 0.000000
					CHANNELS 3 Zrotation Yrotation Xrotation
					End Site
					{
						OFFSET 0.000000 0.000000 0.000000
					}
				}
			}
			JOINT RightUpLegEnd
			{
				OFFSET 0.000000 0.000000 0.000000
				CHANNELS 3 Zrotation Yrotation Xrotation
				End Site
				{
					OFFSET 0.000000 0.000000 0.000000
				}
			}
		}
	}
	JOINT LeftUpLeg
	{
		OFFSET 11.315661 0.000000 -0.000000
		CHANNELS 3 Zrotation Yrotation Xrotation
		JOINT LeftLeg
		{
			OFFSET 0.000000 -38.200325 0.000000
			CHANNELS 3 Zrotation Yrotation Xrotation
			JOINT LeftFoot
			{
				OFFSET 0.000000 -39.900856 -0.000000
				CHANNELS 3 Zrotation Yrotation Xrotation
				JOINT LeftToeBase
				{
					OFFSET 0.000000 0.000000 15.261641
					CHANNELS 3 Zrotation Yrotation Xrotation
					JOINT LeftToeBaseEnd
					{
						OFFSET -0.000000 0.000000 7.539996
						CHANNELS 3 Zrotation Yrotation Xrotation
						End Site
						{
							OFFSET 0.000000 0.000000 0.000000
						}
					}
				}
				JOINT LeftLegEnd
				{
					OFFSET 0.000000 0.000000 0.000000
					CHANNELS 3 Zrotation Yrotation Xrotation
					End Site
					{
						OFFSET 0.000000 0.000000 0.000000
					}
				}
			}
			JOINT LeftUpLegEnd
			{
				OFFSET 0.000000 0.000000 0.000000
				CHANNELS 3 Zrotation Yrotation Xrotation
				End Site
				{
					OFFSET 0.000000 0.000000 0.000000
				}
			}
		}
	}
}
MOTION
Frames: 4
Frame Time: 0.016667
-8.217159 88.161537 11.131332 -3.767508 8.679004 -11.944772 2.169550 -0.455391 7.163876 -0.438053 -0.278668 4.154909 1.500712 -2.249341 5.779713 -0.661683 -0.298437 7.363482 5.633083 2.404252 0.985831 1.211698 4.284845 -4.238472 -1.094744 -0.691509 -15.475929 0.000000 0.000000 0.000000 89.170609 0.279148 14.044462 58.638981 -36.658997 12.779184 -1.004676 13.015047 38.781147 7.569173 9.153270 0.760032 15.751818 -2.041828 37.877125 0.000001 0.000020 -37.854588 0.000047 0.000028 -26.359226 -0.000005 -0.000012 -0.000028 40.285995 -0.031267 -5.578326 27.468256 -0.104119 0.368424 27.516340 -0.070421 0.261351 0.000011 0.000024 -0.000011 38.653965 -0.038781 -4.275066 26.425686 -0.049848 0.141984 26.547791 -0.032454 0.135256 -0.000007 -0.000068 0.000015 40.472439 -0.003076 -0.896770 27.927383 0.148936 -0.256843 27.849714 0.076797 -0.167006 -0.000015 0.002460 -0.000003 39.007088 -0.003055 1.188338 27.212502 0.407859 -0.770827 27.191498 0.244589 -0.513722 0.001707 -0.000010 -0.000044 0.000000 0.000000 0.000000 0.000000 0.000000 0.000000 -83.512428 0.096911 8.835987 -63.270264 33.826687 7.537566 0.579518 -3.664113 46.783489 14.073044 -4.235186 -16.545874 -22.128153 1.927372 35.072079 -0.000002 0.000018 -54.363914 0.000022 -0.000002 -37.889046 -0.002305 0.000003 0.000415 -70.988281 -0.003620 -13.256924 -48.726524 0.059125 -0.017850 -48.839840 0.079338 0.063757 0.000036 0.002165 0.000046 -69.129349 0.022360 -8.134027 -48.289814 0.010605 -0.014856 -48.217819 0.006503 -0.013370 -0.000262 -0.000068 -0.000063 -74.618546 0.014075 -0.702422 -52.708439 -0.021154 -0.065757 -52.562199 -0.031089 -0.029688 -0.001702 0.000009 0.000004 -75.572693 -0.003899 7.203074 -53.117352 -0.110500 -0.148314 -53.006252 -0.118550 -0.087404 0.000248 -0.000003 -0.000047 0.000000 0.000000 0.000000 0.000000 0.000000 0.000000 -2.662636 -6.392437 6.139379 -0.194526 -0.600036 19.599518 3.291341 -13.734013 20.998516 -0.840087 1.110018 -21.258635 0.000000 0.000000 0.000000 0.000000 0.000000 0.000000 0.000000 0.000000 0.000000 -0.218419 -5.626331 1.330059 -0.017646 -0.225959 23.776602 4.967688 9.409785 12.400301 0.200363 0.054528 -20.506861 0.000000 0.000000 0.000000 0.000000 0.000000 0.000000 0.000000 0.000000 0.000000 
-8.202056 88.133682 10.996740 -3.787673 8.813897 -11.747833 2.193653 -0.450330 7.150928 -0.401385 -0.278435 4.302371 1.468834 -2.137891 5.655220 -0.716283 -0.241872 7.427719 5.451097 2.395777 0.998560 1.194096 4.182172 -4.219087 -1.076164 -0.702701 -15.412852 0.000000 0.000000 0.000000 89.008911 0.303227 14.180481 58.849739 -36.935211 12.900945 -1.017284 12.860475 38.695774 7.420298 8.484083 0.427980 15.952684 -2.036548 37.806538 0.000001 0.000020 -38.343880 0.000047 0.000028 -26.702930 -0.000005 -0.000013 -0.000029 41.202869 -0.028719 -5.476953 28.103569 -0.095495 0.405960 28.148251 -0.061304 0.295458 0.000011 0.000024 -0.000011 39.506695 -0.037498 -4.094099 27.033052 -0.047078 0.155616 27.165718 -0.030186 0.146675 -0.000007 -0.000056 0.000014 41.336964 -0.003278 -0.581173 28.567602 0.142025 -0.272616 28.492455 0.072187 -0.179745 -0.000015 0.002567 -0.000002 39.857189 0.000218 1.641617 27.853127 0.388641 -0.814694 27.826967 0.225833 -0.549089 0.001758 -0.000010 -0.000043 0.000000 0.000000 0.000000 0.000000 0.000000 0.000000 -83.359009 0.064182 8.891455 -63.447838 33.780632 7.353405 0.590539 -3.691341 47.099747 14.293889 -4.514894 -16.531256 -22.307346 1.922312 35.008533 -0.000002 0.000018 -54.745438 0.000009 -0.000002 -38.171513 -0.002130 0.000004 0.000422 -71.658501 0.000627 -13.081619 -49.229534 0.061288 -0.045524 -49.341469 0.082405 0.036450 0.000035 0.002136 0.000047 -69.817604 0.023733 -7.941321 -48.791393 0.011016 -0.024830 -48.713772 0.006672 -0.023214 -0.000270 -0.000068 -0.000045 -75.401466 0.013617 -0.450315 -53.242554 -0.022462 -0.050804 -53.100597 -0.032428 -0.019160 -0.001760 0.000009 0.000004 -76.420868 -0.001349 7.520708 -53.655685 -0.115958 -0.110502 -53.546318 -0.124320 -0.055505 0.000231 -0.000003 -0.000047 0.000000 0.000000 0.000000 0.000000 0.000000 0.000000 -2.638811 -6.395865 5.717320 -0.193351 -0.590145 19.772369 3.261321 -13.731537 21.051397 -0.831479 1.107196 -21.344015 0.000000 0.000000 0.000000 0.000000 0.000000 0.000000 0.000000 0.000000 0.000000 -0.237618 -5.696803 0.853788 -0.015819 -0.222280 24.087349 4.954758 9.333477 12.284431 0.195394 0.047383 -20.564888 0.000000 0.000000 0.000000 0.000000 0.000000 0.000000 0.000000 0.000000 0.000000 
-8.195807 88.096336 10.875018 -3.808325 9.000978 -11.576687 2.206276 -0.445337 7.139809 -0.368280 -0.275827 4.434865 1.433780 -2.017500 5.556278 -0.768273 -0.186630 7.491275 5.314330 2.348470 1.007256 1.168675 4.060173 -4.205622 -1.055593 -0.709246 -15.360898 0.000000 0.000000 0.000000 88.867722 0.315402 14.309881 59.014034 -37.161179 13.056209 -1.027057 12.736719 38.706791 7.284616 7.956335 0.119319 16.155394 -2.032234 37.733574 0.000001 0.000020 -38.839733 0.000047 0.000028 -27.051113 -0.000006 -0.000013 -0.000029 42.131500 -0.026235 -5.372131 28.737715 -0.088380 0.447962 28.777672 -0.053672 0.333472 0.000010 0.000024 -0.000011 40.373104 -0.036313 -3.913805 27.637657 -0.044927 0.170908 27.781744 -0.028384 0.159326 -0.000007 -0.000046 0.000013 42.227833 -0.003274 -0.276418 29.210218 0.135806 -0.290572 29.137209 0.068229 -0.193981 -0.000015 0.002675 -0.000001 40.747871 0.004421 2.074882 28.500214 0.370962 -0.862676 28.466825 0.208772 -0.588740 0.001787 -0.000011 -0.000043 0.000000 0.000000 0.000000 0.000000 0.000000 0.000000 -83.245590 0.038270 8.943371 -63.602779 33.599781 7.144855 0.589454 -3.769219 47.349270 14.473821 -4.942545 -16.574726 -22.471687 1.917362 34.951397 -0.000002 0.000018 -55.091427 -0.000004 -0.000003 -38.428211 -0.001948 0.000005 0.000423 -72.259819 0.004300 -12.916643 -49.686344 0.062088 -0.075417 -49.797874 0.084064 0.007758 0.000033 0.002099 0.000047 -70.440269 0.024830 -7.769661 -49.246853 0.010862 -0.035674 -49.164532 0.006485 -0.033628 -0.000285 -0.000068 -0.000028 -76.115860 0.013256 -0.222890 -53.729748 -0.022923 -0.034783 -53.592377 -0.033231 -0.007806 -0.001786 0.000009 0.000004 -77.202866 0.001251 7.802189 -54.152607 -0.119052 -0.068785 -54.046341 -0.128107 -0.020669 0.000208 -0.000003 -0.000048 0.000000 0.000000 0.000000 0.000000 0.000000 0.000000 -2.605662 -6.403928 5.336301 -0.193088 -0.583062 19.979815 3.239012 -13.741838 21.029488 -0.821597 1.108373 -21.415096 0.000000 0.000000 0.000000 0.000000 0.000000 0.000000 0.000000 0.000000 0.000000 -0.248808 -5.782834 0.383786 -0.013907 -0.218757 24.418058 4.939489 9.240432 12.160106 0.192255 0.041258 -20.607903 0.000000 0.000000 0.000000 0.000000 0.000000 0.000000 0.000000 0.000000 0.000000 
-8.200086 88.047630 10.764950 -3.833602 9.233714 -11.436202 2.209403 -0.439959 7.139271 -0.336008 -0.271625 4.553168 1.390911 -1.885963 5.489964 -0.815305 -0.133042 7.552549 5.226031 2.261219 1.014651 1.136930 3.919733 -4.194994 -1.032248 -0.712272 -15.316816 0.000000 0.000000 0.000000 88.747131 0.318662 14.438027 59.105797 -37.352177 13.268695 -1.033770 12.646397 38.801529 7.165202 7.546036 -0.170900 16.356281 -2.029167 37.659187 0.000002 0.000020 -39.333485 0.000047 0.000028 -27.398163 -0.000006 -0.000013 -0.000029 43.058731 -0.023974 -5.272998 29.360762 -0.083274 0.493769 29.395159 -0.048046 0.374701 0.000010 0.000024 -0.000012 41.237820 -0.035315 -3.743561 28.228872 -0.043575 0.187722 28.385019 -0.027200 0.173119 -0.000006 -0.000037 0.000012 43.122314 -0.003007 0.005368 29.840740 0.130731 -0.310749 29.769733 0.065199 -0.209721 -0.000015 0.002786 -0.000000 41.652607 0.009455 2.475050 29.137165 0.356274 -0.915177 29.095121 0.194588 -0.632830 0.001791 -0.000011 -0.000042 0.000000 0.000000 0.000000 0.000000 0.000000 0.000000 -83.172188 0.018259 8.995185 -63.688148 33.344131 6.959902 0.581493 -3.874564 47.525509 14.613553 -5.437550 -16.649448 -22.619820 1.912400 34.901257 -0.000003 0.000018 -55.401020 -0.000017 -0.000003 -38.657978 -0.001773 0.000006 0.000417 -72.798050 0.007501 -12.769034 -50.100372 0.061481 -0.107312 -50.212685 0.084246 -0.021968 0.000032 0.002058 0.000048 -71.000916 0.025647 -7.623041 -49.658958 0.010136 -0.047295 -49.572968 0.005915 -0.044533 -0.000306 -0.000067 -0.000013 -76.761726 0.013059 -0.023834 -54.171082 -0.022437 -0.017850 -54.038692 -0.033426 0.004288 -0.001783 0.000009 0.000004 -77.914658 0.004010 8.046511 -54.607464 -0.119520 -0.023750 -54.505417 -0.129699 0.016689 0.000184 -0.000003 -0.000049 0.000000 0.000000 0.000000 0.000000 0.000000 0.000000 -2.558332 -6.421814 5.002295 -0.193568 -0.578129 20.222078 3.225328 -13.770580 20.927818 -0.810590 1.114633 -21.467611 0.000000 0.000000 0.000000 0.000000 0.000000 0.000000 0.000000 0.000000 0.000000 -0.247257 -5.884869 -0.086393 -0.011834 -0.215375 24.797424 4.918593 9.138683 12.014541 0.191199 0.035523 -20.632586 0.000000 0.000000 0.000000 0.000000 0.000000 0.000000 0.000000 0.000000 0.000000 
